<svg width="157" height="22" viewBox="0 0 157 22" fill="none" xmlns="http://www.w3.org/2000/svg">
<g clip-path="url(#clip0_254_1386)">
<path d="M17.875 3.4375H4.125C3.7453 3.4375 3.4375 3.7453 3.4375 4.125V17.875C3.4375 18.2547 3.7453 18.5625 4.125 18.5625H17.875C18.2547 18.5625 18.5625 18.2547 18.5625 17.875V4.125C18.5625 3.7453 18.2547 3.4375 17.875 3.4375Z" stroke="#C5C9D6" stroke-width="1.5" stroke-linecap="round" stroke-linejoin="round"/>
<path d="M15.125 2.0625V4.8125" stroke="#C5C9D6" stroke-width="1.5" stroke-linecap="round" stroke-linejoin="round"/>
<path d="M6.875 2.0625V4.8125" stroke="#C5C9D6" stroke-width="1.5" stroke-linecap="round" stroke-linejoin="round"/>
<path d="M3.4375 7.5625H18.5625" stroke="#C5C9D6" stroke-width="1.5" stroke-linecap="round" stroke-linejoin="round"/>
</g>
<path d="M28.56 13.424V12.696L33.754 6.2H34.874L29.722 12.696L29.176 12.528H37.058V13.424H28.56ZM34.09 16V13.424L34.118 12.528V10.26H35.098V16H34.09ZM42.5159 16V6.2H46.5059C47.5513 6.2 48.4659 6.41 49.2499 6.83C50.0433 7.24067 50.6593 7.81467 51.0979 8.552C51.5366 9.28933 51.7559 10.1387 51.7559 11.1C51.7559 12.0613 51.5366 12.9107 51.0979 13.648C50.6593 14.3853 50.0433 14.964 49.2499 15.384C48.4659 15.7947 47.5513 16 46.5059 16H42.5159ZM43.5519 15.104H46.4499C47.3179 15.104 48.0693 14.936 48.7039 14.6C49.3479 14.2547 49.8473 13.7833 50.2019 13.186C50.5566 12.5793 50.7339 11.884 50.7339 11.1C50.7339 10.3067 50.5566 9.61133 50.2019 9.014C49.8473 8.41667 49.3479 7.95 48.7039 7.614C48.0693 7.26867 47.3179 7.096 46.4499 7.096H43.5519V15.104ZM58.4783 16V14.376L58.4363 14.11V11.394C58.4363 10.7687 58.259 10.288 57.9043 9.952C57.559 9.616 57.041 9.448 56.3503 9.448C55.8743 9.448 55.4217 9.52733 54.9923 9.686C54.563 9.84467 54.199 10.0547 53.9003 10.316L53.4523 9.574C53.8257 9.25667 54.2737 9.014 54.7963 8.846C55.319 8.66867 55.8697 8.58 56.4483 8.58C57.4003 8.58 58.133 8.818 58.6463 9.294C59.169 9.76067 59.4303 10.4747 59.4303 11.436V16H58.4783ZM55.9443 16.07C55.3937 16.07 54.913 15.9813 54.5023 15.804C54.101 15.6173 53.793 15.3653 53.5783 15.048C53.3637 14.7213 53.2563 14.348 53.2563 13.928C53.2563 13.5453 53.345 13.2 53.5223 12.892C53.709 12.5747 54.0077 12.3227 54.4183 12.136C54.8383 11.94 55.3983 11.842 56.0983 11.842H58.6323V12.584H56.1263C55.417 12.584 54.9223 12.71 54.6423 12.962C54.3717 13.214 54.2363 13.5267 54.2363 13.9C54.2363 14.32 54.3997 14.656 54.7263 14.908C55.053 15.16 55.5103 15.286 56.0983 15.286C56.6583 15.286 57.139 15.16 57.5403 14.908C57.951 14.6467 58.2497 14.2733 58.4363 13.788L58.6603 14.474C58.4737 14.9593 58.147 15.3467 57.6803 15.636C57.223 15.9253 56.6443 16.07 55.9443 16.07ZM62.0494 18.786C61.7041 18.786 61.3728 18.73 61.0554 18.618C60.7474 18.506 60.4814 18.338 60.2574 18.114L60.7194 17.372C60.9061 17.5493 61.1068 17.6847 61.3214 17.778C61.5454 17.8807 61.7928 17.932 62.0634 17.932C62.3901 17.932 62.6701 17.8387 62.9034 17.652C63.1461 17.4747 63.3748 17.1573 63.5894 16.7L64.0654 15.622L64.1774 15.468L67.2014 8.65H68.1814L64.4994 16.882C64.2941 17.358 64.0654 17.736 63.8134 18.016C63.5708 18.296 63.3048 18.492 63.0154 18.604C62.7261 18.7253 62.4041 18.786 62.0494 18.786ZM64.0094 16.21L60.6214 8.65H61.6574L64.6534 15.398L64.0094 16.21ZM71.4733 16.07C70.8666 16.07 70.2926 15.986 69.7513 15.818C69.2099 15.6407 68.7853 15.4213 68.4773 15.16L68.9253 14.376C69.2239 14.6 69.6066 14.796 70.0733 14.964C70.5399 15.1227 71.0299 15.202 71.5433 15.202C72.2433 15.202 72.7473 15.0947 73.0553 14.88C73.3633 14.656 73.5173 14.362 73.5173 13.998C73.5173 13.7273 73.4286 13.5173 73.2513 13.368C73.0833 13.2093 72.8593 13.0927 72.5793 13.018C72.2993 12.934 71.9866 12.864 71.6413 12.808C71.2959 12.752 70.9506 12.6867 70.6053 12.612C70.2693 12.5373 69.9613 12.43 69.6813 12.29C69.4013 12.1407 69.1726 11.94 68.9953 11.688C68.8273 11.436 68.7433 11.1 68.7433 10.68C68.7433 10.2787 68.8553 9.91933 69.0793 9.602C69.3033 9.28467 69.6299 9.03733 70.0593 8.86C70.4979 8.67333 71.0299 8.58 71.6553 8.58C72.1313 8.58 72.6073 8.64533 73.0833 8.776C73.5593 8.89733 73.9513 9.06067 74.2593 9.266L73.8253 10.064C73.4986 9.84 73.1486 9.68133 72.7753 9.588C72.4019 9.48533 72.0286 9.434 71.6553 9.434C70.9926 9.434 70.5026 9.55067 70.1853 9.784C69.8773 10.008 69.7233 10.2973 69.7233 10.652C69.7233 10.932 69.8073 11.1513 69.9753 11.31C70.1526 11.4687 70.3813 11.5947 70.6613 11.688C70.9506 11.772 71.2633 11.842 71.5993 11.898C71.9446 11.954 72.2853 12.024 72.6213 12.108C72.9666 12.1827 73.2793 12.29 73.5593 12.43C73.8486 12.5607 74.0773 12.752 74.2453 13.004C74.4226 13.2467 74.5113 13.5687 74.5113 13.97C74.5113 14.3993 74.3899 14.7727 74.1473 15.09C73.9139 15.398 73.5686 15.6407 73.1113 15.818C72.6633 15.986 72.1173 16.07 71.4733 16.07ZM80.2093 16V6.2H83.8773C84.7079 6.2 85.4219 6.33533 86.0193 6.606C86.6166 6.86733 87.0739 7.25 87.3913 7.754C87.7179 8.24867 87.8813 8.85067 87.8813 9.56C87.8813 10.2507 87.7179 10.848 87.3913 11.352C87.0739 11.8467 86.6166 12.2293 86.0193 12.5C85.4219 12.7613 84.7079 12.892 83.8773 12.892H80.7833L81.2453 12.416V16H80.2093ZM86.9013 16L84.3813 12.444H85.5013L88.0353 16H86.9013ZM81.2453 12.5L80.7833 12.01H83.8493C84.8293 12.01 85.5713 11.7953 86.0753 11.366C86.5886 10.9367 86.8453 10.3347 86.8453 9.56C86.8453 8.776 86.5886 8.16933 86.0753 7.74C85.5713 7.31067 84.8293 7.096 83.8493 7.096H80.7833L81.2453 6.606V12.5ZM93.2385 16.07C92.4731 16.07 91.8011 15.9113 91.2225 15.594C90.6438 15.2673 90.1911 14.824 89.8645 14.264C89.5378 13.6947 89.3745 13.046 89.3745 12.318C89.3745 11.59 89.5285 10.946 89.8365 10.386C90.1538 9.826 90.5831 9.38733 91.1245 9.07C91.6751 8.74333 92.2911 8.58 92.9725 8.58C93.6631 8.58 94.2745 8.73867 94.8065 9.056C95.3478 9.364 95.7725 9.80267 96.0805 10.372C96.3885 10.932 96.5425 11.5807 96.5425 12.318C96.5425 12.3647 96.5378 12.416 96.5285 12.472C96.5285 12.5187 96.5285 12.57 96.5285 12.626H90.1305V11.884H95.9965L95.6045 12.178C95.6045 11.646 95.4878 11.1747 95.2545 10.764C95.0305 10.344 94.7225 10.0173 94.3305 9.784C93.9385 9.55067 93.4858 9.434 92.9725 9.434C92.4685 9.434 92.0158 9.55067 91.6145 9.784C91.2131 10.0173 90.9005 10.344 90.6765 10.764C90.4525 11.184 90.3405 11.6647 90.3405 12.206V12.36C90.3405 12.92 90.4618 13.4147 90.7045 13.844C90.9565 14.264 91.3018 14.5953 91.7405 14.838C92.1885 15.0713 92.6971 15.188 93.2665 15.188C93.7145 15.188 94.1298 15.1087 94.5125 14.95C94.9045 14.7913 95.2405 14.5487 95.5205 14.222L96.0805 14.866C95.7538 15.258 95.3431 15.5567 94.8485 15.762C94.3631 15.9673 93.8265 16.07 93.2385 16.07ZM107.75 8.58C108.347 8.58 108.865 8.69667 109.304 8.93C109.752 9.154 110.097 9.49933 110.34 9.966C110.592 10.4327 110.718 11.0207 110.718 11.73V16H109.724V11.828C109.724 11.0533 109.537 10.47 109.164 10.078C108.8 9.67667 108.282 9.476 107.61 9.476C107.106 9.476 106.667 9.58333 106.294 9.798C105.93 10.0033 105.645 10.3067 105.44 10.708C105.244 11.1 105.146 11.576 105.146 12.136V16H104.152V11.828C104.152 11.0533 103.965 10.47 103.592 10.078C103.218 9.67667 102.696 9.476 102.024 9.476C101.529 9.476 101.095 9.58333 100.722 9.798C100.348 10.0033 100.059 10.3067 99.8537 10.708C99.6577 11.1 99.5597 11.576 99.5597 12.136V16H98.5657V8.65H99.5177V10.638L99.3637 10.288C99.5877 9.756 99.947 9.34067 100.442 9.042C100.946 8.734 101.538 8.58 102.22 8.58C102.938 8.58 103.55 8.762 104.054 9.126C104.558 9.48067 104.884 10.0173 105.034 10.736L104.642 10.582C104.856 9.98467 105.234 9.504 105.776 9.14C106.326 8.76667 106.984 8.58 107.75 8.58ZM118.019 16V14.376L117.977 14.11V11.394C117.977 10.7687 117.8 10.288 117.445 9.952C117.1 9.616 116.582 9.448 115.891 9.448C115.415 9.448 114.963 9.52733 114.533 9.686C114.104 9.84467 113.74 10.0547 113.441 10.316L112.993 9.574C113.367 9.25667 113.815 9.014 114.337 8.846C114.86 8.66867 115.411 8.58 115.989 8.58C116.941 8.58 117.674 8.818 118.187 9.294C118.71 9.76067 118.971 10.4747 118.971 11.436V16H118.019ZM115.485 16.07C114.935 16.07 114.454 15.9813 114.043 15.804C113.642 15.6173 113.334 15.3653 113.119 15.048C112.905 14.7213 112.797 14.348 112.797 13.928C112.797 13.5453 112.886 13.2 113.063 12.892C113.25 12.5747 113.549 12.3227 113.959 12.136C114.379 11.94 114.939 11.842 115.639 11.842H118.173V12.584H115.667C114.958 12.584 114.463 12.71 114.183 12.962C113.913 13.214 113.777 13.5267 113.777 13.9C113.777 14.32 113.941 14.656 114.267 14.908C114.594 15.16 115.051 15.286 115.639 15.286C116.199 15.286 116.68 15.16 117.081 14.908C117.492 14.6467 117.791 14.2733 117.977 13.788L118.201 14.474C118.015 14.9593 117.688 15.3467 117.221 15.636C116.764 15.9253 116.185 16.07 115.485 16.07ZM121.671 16V8.65H122.665V16H121.671ZM122.175 7.026C121.97 7.026 121.797 6.956 121.657 6.816C121.517 6.676 121.447 6.508 121.447 6.312C121.447 6.116 121.517 5.95267 121.657 5.822C121.797 5.682 121.97 5.612 122.175 5.612C122.38 5.612 122.553 5.67733 122.693 5.808C122.833 5.93867 122.903 6.102 122.903 6.298C122.903 6.50333 122.833 6.676 122.693 6.816C122.562 6.956 122.39 7.026 122.175 7.026ZM129.183 8.58C129.78 8.58 130.303 8.69667 130.751 8.93C131.208 9.154 131.563 9.49933 131.815 9.966C132.076 10.4327 132.207 11.0207 132.207 11.73V16H131.213V11.828C131.213 11.0533 131.017 10.47 130.625 10.078C130.242 9.67667 129.701 9.476 129.001 9.476C128.478 9.476 128.021 9.58333 127.629 9.798C127.246 10.0033 126.948 10.3067 126.733 10.708C126.528 11.1 126.425 11.576 126.425 12.136V16H125.431V8.65H126.383V10.666L126.229 10.288C126.462 9.756 126.836 9.34067 127.349 9.042C127.862 8.734 128.474 8.58 129.183 8.58ZM134.892 16V8.65H135.886V16H134.892ZM135.396 7.026C135.191 7.026 135.018 6.956 134.878 6.816C134.738 6.676 134.668 6.508 134.668 6.312C134.668 6.116 134.738 5.95267 134.878 5.822C135.018 5.682 135.191 5.612 135.396 5.612C135.601 5.612 135.774 5.67733 135.914 5.808C136.054 5.93867 136.124 6.102 136.124 6.298C136.124 6.50333 136.054 6.676 135.914 6.816C135.783 6.956 135.611 7.026 135.396 7.026ZM142.404 8.58C143.001 8.58 143.524 8.69667 143.972 8.93C144.429 9.154 144.784 9.49933 145.036 9.966C145.297 10.4327 145.428 11.0207 145.428 11.73V16H144.434V11.828C144.434 11.0533 144.238 10.47 143.846 10.078C143.463 9.67667 142.922 9.476 142.222 9.476C141.699 9.476 141.242 9.58333 140.85 9.798C140.467 10.0033 140.168 10.3067 139.954 10.708C139.748 11.1 139.646 11.576 139.646 12.136V16H138.652V8.65H139.604V10.666L139.45 10.288C139.683 9.756 140.056 9.34067 140.57 9.042C141.083 8.734 141.694 8.58 142.404 8.58ZM151.249 18.786C150.577 18.786 149.933 18.688 149.317 18.492C148.701 18.296 148.201 18.016 147.819 17.652L148.323 16.896C148.668 17.204 149.093 17.4467 149.597 17.624C150.11 17.8107 150.651 17.904 151.221 17.904C152.154 17.904 152.84 17.6847 153.279 17.246C153.717 16.8167 153.937 16.1447 153.937 15.23V13.396L154.077 12.136L153.979 10.876V8.65H154.931V15.104C154.931 16.3733 154.618 17.302 153.993 17.89C153.377 18.4873 152.462 18.786 151.249 18.786ZM151.067 15.72C150.367 15.72 149.737 15.5707 149.177 15.272C148.617 14.964 148.173 14.5393 147.847 13.998C147.529 13.4567 147.371 12.836 147.371 12.136C147.371 11.436 147.529 10.82 147.847 10.288C148.173 9.74667 148.617 9.32667 149.177 9.028C149.737 8.72933 150.367 8.58 151.067 8.58C151.72 8.58 152.308 8.71533 152.831 8.986C153.353 9.25667 153.769 9.658 154.077 10.19C154.385 10.722 154.539 11.3707 154.539 12.136C154.539 12.9013 154.385 13.55 154.077 14.082C153.769 14.614 153.353 15.02 152.831 15.3C152.308 15.58 151.72 15.72 151.067 15.72ZM151.165 14.838C151.706 14.838 152.187 14.726 152.607 14.502C153.027 14.2687 153.358 13.9513 153.601 13.55C153.843 13.1393 153.965 12.668 153.965 12.136C153.965 11.604 153.843 11.1373 153.601 10.736C153.358 10.3347 153.027 10.022 152.607 9.798C152.187 9.56467 151.706 9.448 151.165 9.448C150.633 9.448 150.152 9.56467 149.723 9.798C149.303 10.022 148.971 10.3347 148.729 10.736C148.495 11.1373 148.379 11.604 148.379 12.136C148.379 12.668 148.495 13.1393 148.729 13.55C148.971 13.9513 149.303 14.2687 149.723 14.502C150.152 14.726 150.633 14.838 151.165 14.838Z" fill="#636A80"/>
<defs>
<clipPath id="clip0_254_1386">
<rect width="22" height="22" fill="white"/>
</clipPath>
</defs>
</svg>
